<mxfile host="app.diagrams.net" agent="Mozilla/5.0 (X11; Ubuntu; Linux x86_64; rv:129.0) Gecko/20100101 Firefox/129.0" version="24.7.13">
  <diagram id="C5RBs43oDa-KdzZeNtuy" name="Page-1">
    <mxGraphModel dx="1366" dy="730" grid="1" gridSize="10" guides="1" tooltips="1" connect="1" arrows="1" fold="1" page="1" pageScale="1" pageWidth="827" pageHeight="1169" math="0" shadow="0">
      <root>
        <mxCell id="WIyWlLk6GJQsqaUBKTNV-0" />
        <mxCell id="WIyWlLk6GJQsqaUBKTNV-1" parent="WIyWlLk6GJQsqaUBKTNV-0" />
        <mxCell id="DIwOK9Rxm60CIabN7cfZ-0" value="&lt;p style=&quot;margin:0px;margin-top:4px;text-align:center;&quot;&gt;&lt;i&gt;&amp;lt;&amp;lt;Entity&amp;gt;&amp;gt;&lt;/i&gt;&lt;br&gt;&lt;b&gt;Classe: &lt;/b&gt;Fazenda&lt;br&gt;&lt;/p&gt;&lt;hr size=&quot;1&quot; style=&quot;border-style:solid;&quot;&gt;&lt;p align=&quot;center&quot; style=&quot;margin:0px;margin-left:4px;&quot;&gt;&lt;font style=&quot;font-size: 12px;&quot;&gt;&lt;code&gt;&lt;b&gt;Atributos&lt;br&gt;&lt;/b&gt;&lt;/code&gt;&lt;/font&gt;&lt;/p&gt;&lt;p style=&quot;margin:0px;margin-left:4px;&quot;&gt;&lt;font style=&quot;font-size: 12px;&quot;&gt;&lt;code&gt;- codigoFazenda&lt;/code&gt;: Integer&lt;/font&gt;&lt;/p&gt;&lt;p style=&quot;margin:0px;margin-left:4px;&quot;&gt;&lt;font style=&quot;font-size: 12px;&quot;&gt;&lt;code&gt;- responsavel&lt;/code&gt;: ResponsavelFazenda&lt;/font&gt;&lt;/p&gt;&lt;p style=&quot;margin:0px;margin-left:4px;&quot;&gt;&lt;font style=&quot;font-size: 12px;&quot;&gt;&lt;code&gt;- produtos: List&amp;lt;Produto&amp;gt;&lt;/code&gt;&lt;/font&gt;&lt;/p&gt;&lt;p style=&quot;margin:0px;margin-left:4px;&quot;&gt;&lt;font style=&quot;font-size: 12px;&quot;&gt;&lt;code&gt;- safra: List&amp;lt;Safra&amp;gt;&lt;/code&gt;&lt;/font&gt;&lt;/p&gt;&lt;hr size=&quot;1&quot; style=&quot;border-style:solid;&quot;&gt;&lt;p align=&quot;center&quot; style=&quot;margin:0px;margin-left:4px;&quot;&gt;&lt;font style=&quot;font-size: 12px;&quot;&gt;&lt;b&gt;Metodos&lt;/b&gt;&lt;br&gt;&lt;/font&gt;&lt;/p&gt;&lt;p style=&quot;margin:0px;margin-left:4px;&quot;&gt;&lt;font style=&quot;font-size: 12px;&quot;&gt;+&amp;nbsp;cadastrarFazenda(): Void&lt;br&gt;+&amp;nbsp;adicionarProdutoEstoque(Produto produto, float quantidade): String&lt;/font&gt;&lt;/p&gt;&lt;p style=&quot;margin:0px;margin-left:4px;&quot;&gt;&lt;font style=&quot;font-size: 12px;&quot;&gt;+ removerProdutoEstoque(Produto produto, float quantidade): String&lt;/font&gt;&lt;/p&gt;&lt;p style=&quot;margin:0px;margin-left:4px;&quot;&gt;&lt;font style=&quot;font-size: 12px;&quot;&gt;+ listarSafras(): List&amp;lt;Safra&amp;gt;&lt;/font&gt;&lt;br&gt;&lt;/p&gt;" style="verticalAlign=top;align=left;overflow=fill;html=1;whiteSpace=wrap;" vertex="1" parent="WIyWlLk6GJQsqaUBKTNV-1">
          <mxGeometry x="10" y="60" width="390" height="270" as="geometry" />
        </mxCell>
        <mxCell id="DIwOK9Rxm60CIabN7cfZ-1" value="&lt;p style=&quot;margin:0px;margin-top:4px;text-align:center;&quot;&gt;&lt;i&gt;&amp;lt;&amp;lt;Entity&amp;gt;&amp;gt;&lt;/i&gt;&lt;br&gt;&lt;b&gt;Classe: &lt;/b&gt;ResponsavelFazenda&lt;br&gt;&lt;/p&gt;&lt;hr size=&quot;1&quot; style=&quot;border-style:solid;&quot;&gt;&lt;p align=&quot;center&quot; style=&quot;margin:0px;margin-left:4px;&quot;&gt;&lt;font style=&quot;font-size: 12px;&quot;&gt;&lt;code&gt;&lt;b&gt;Atributos&lt;br&gt;&lt;/b&gt;&lt;/code&gt;&lt;/font&gt;&lt;/p&gt;&lt;pre style=&quot;margin:0px;margin-left:4px;&quot;&gt;&lt;font face=&quot;Helvetica&quot; style=&quot;font-size: 12px;&quot;&gt;&lt;code&gt;- codigoResponsavel: Integer&lt;br&gt;- nome&lt;/code&gt;: String&lt;/font&gt;&lt;/pre&gt;&lt;pre style=&quot;margin:0px;margin-left:4px;&quot;&gt;&lt;font face=&quot;3SHaTFnH1fSQ2NX9ofN7&quot; style=&quot;font-size: 12px;&quot;&gt;&lt;code&gt;- cpf&lt;/code&gt;: CPF&lt;/font&gt;&lt;/pre&gt;&lt;pre style=&quot;margin:0px;margin-left:4px;&quot;&gt;&lt;font face=&quot;3SHaTFnH1fSQ2NX9ofN7&quot; style=&quot;font-size: 12px;&quot;&gt;- email: List&amp;lt;Email&amp;gt;&lt;br&gt;&lt;/font&gt;&lt;/pre&gt;&lt;pre style=&quot;margin:0px;margin-left:4px;&quot;&gt;&lt;font face=&quot;3SHaTFnH1fSQ2NX9ofN7&quot; style=&quot;font-size: 12px;&quot;&gt;&lt;code&gt;- telefone: List&amp;lt;Telefone&amp;gt;&lt;/code&gt;&lt;/font&gt;&lt;/pre&gt;&lt;hr size=&quot;1&quot; style=&quot;border-style:solid;&quot;&gt;&lt;p align=&quot;center&quot; style=&quot;margin:0px;margin-left:4px;&quot;&gt;&lt;font style=&quot;font-size: 12px;&quot;&gt;&lt;b&gt;Metodos&lt;/b&gt;&lt;br&gt;&lt;/font&gt;&lt;/p&gt;&lt;p style=&quot;margin:0px;margin-left:4px;&quot;&gt;&lt;font style=&quot;font-size: 12px;&quot;&gt;+&amp;nbsp;&lt;/font&gt;cadastrarResponsavel&lt;font style=&quot;font-size: 12px;&quot;&gt;(): Void&lt;/font&gt;&lt;/p&gt;&lt;p style=&quot;margin:0px;margin-left:4px;&quot;&gt;&lt;font style=&quot;font-size: 12px;&quot;&gt;+ cadastrarNovoTelefone(Telefone telefone): Telefone&lt;/font&gt;&lt;/p&gt;&lt;p style=&quot;margin:0px;margin-left:4px;&quot;&gt;&lt;font style=&quot;font-size: 12px;&quot;&gt;+ listarTelefone(): List&amp;lt;Telefone&amp;gt;&lt;/font&gt;&lt;/p&gt;&lt;p style=&quot;margin:0px;margin-left:4px;&quot;&gt;&lt;font style=&quot;font-size: 12px;&quot;&gt;+ cadastrarNovoEmail(Email email): Email&lt;/font&gt;&lt;/p&gt;&lt;p style=&quot;margin:0px;margin-left:4px;&quot;&gt;&lt;font style=&quot;font-size: 12px;&quot;&gt;+ listarEmail(): List&amp;lt;Email&amp;gt;&lt;br&gt;&lt;/font&gt;&lt;/p&gt;" style="verticalAlign=top;align=left;overflow=fill;html=1;whiteSpace=wrap;" vertex="1" parent="WIyWlLk6GJQsqaUBKTNV-1">
          <mxGeometry x="420" y="60" width="390" height="270" as="geometry" />
        </mxCell>
        <mxCell id="DIwOK9Rxm60CIabN7cfZ-2" value="&lt;p style=&quot;margin:0px;margin-top:4px;text-align:center;&quot;&gt;&lt;i&gt;&amp;lt;&amp;lt;Entity&amp;gt;&amp;gt;&lt;/i&gt;&lt;br&gt;&lt;b&gt;Classe: &lt;/b&gt;Produto&lt;br&gt;&lt;/p&gt;&lt;hr size=&quot;1&quot; style=&quot;border-style:solid;&quot;&gt;&lt;p align=&quot;center&quot; style=&quot;margin:0px;margin-left:4px;&quot;&gt;&lt;font style=&quot;font-size: 12px;&quot;&gt;&lt;code&gt;&lt;b&gt;Atributos&lt;br&gt;&lt;/b&gt;&lt;/code&gt;&lt;/font&gt;&lt;/p&gt;&lt;pre style=&quot;margin:0px;margin-left:4px;&quot;&gt;&lt;font face=&quot;Helvetica&quot; style=&quot;font-size: 12px;&quot;&gt;&lt;code&gt;- &lt;/code&gt;&lt;/font&gt;&lt;code&gt;codigoProduto&lt;/code&gt;&lt;font face=&quot;Helvetica&quot; style=&quot;font-size: 12px;&quot;&gt;&lt;code&gt;: Integer&lt;br&gt;- &lt;/code&gt;&lt;/font&gt;&lt;code&gt;nomeProduto&lt;/code&gt;&lt;font face=&quot;Helvetica&quot; style=&quot;font-size: 12px;&quot;&gt;&lt;code&gt;&lt;/code&gt;: String&lt;/font&gt;&lt;/pre&gt;&lt;pre style=&quot;margin:0px;margin-left:4px;&quot;&gt;&lt;font face=&quot;3SHaTFnH1fSQ2NX9ofN7&quot; style=&quot;font-size: 12px;&quot;&gt;&lt;code&gt;- &lt;/code&gt;&lt;/font&gt;&lt;code&gt;quantidadeEstocada&lt;/code&gt;&lt;font face=&quot;3SHaTFnH1fSQ2NX9ofN7&quot; style=&quot;font-size: 12px;&quot;&gt;&lt;code&gt;&lt;/code&gt;: Double&lt;/font&gt;&lt;/pre&gt;&lt;hr size=&quot;1&quot; style=&quot;border-style:solid;&quot;&gt;&lt;p align=&quot;center&quot; style=&quot;margin:0px;margin-left:4px;&quot;&gt;&lt;font style=&quot;font-size: 12px;&quot;&gt;&lt;b&gt;Metodos&lt;/b&gt;&lt;br&gt;&lt;/font&gt;&lt;/p&gt;&lt;p style=&quot;margin:0px;margin-left:4px;&quot;&gt;&lt;font style=&quot;font-size: 12px;&quot;&gt;+ &lt;/font&gt;cadastrarProduto&lt;font style=&quot;font-size: 12px;&quot;&gt;(String nomeProduto, Double quantidadeProduto): Void&lt;/font&gt;&lt;/p&gt;&lt;p style=&quot;margin:0px;margin-left:4px;&quot;&gt;&lt;font style=&quot;font-size: 12px;&quot;&gt;+ atualizarEstoque(Double quantidadeProduto): Void&lt;br&gt;&lt;/font&gt;&lt;/p&gt;" style="verticalAlign=top;align=left;overflow=fill;html=1;whiteSpace=wrap;" vertex="1" parent="WIyWlLk6GJQsqaUBKTNV-1">
          <mxGeometry x="10" y="370" width="470" height="270" as="geometry" />
        </mxCell>
        <mxCell id="DIwOK9Rxm60CIabN7cfZ-3" value="&lt;p style=&quot;margin:0px;margin-top:4px;text-align:center;&quot;&gt;&lt;i&gt;&amp;lt;&amp;lt;Entity&amp;gt;&amp;gt;&lt;/i&gt;&lt;br&gt;&lt;b&gt;Classe: &lt;/b&gt;Safra&lt;/p&gt;&lt;hr size=&quot;1&quot; style=&quot;border-style:solid;&quot;&gt;&lt;p align=&quot;center&quot; style=&quot;margin:0px;margin-left:4px;&quot;&gt;&lt;font style=&quot;font-size: 12px;&quot;&gt;&lt;code&gt;&lt;b&gt;Atributos&lt;br&gt;&lt;/b&gt;&lt;/code&gt;&lt;/font&gt;&lt;/p&gt;&lt;pre style=&quot;margin:0px;margin-left:4px;&quot;&gt;&lt;font face=&quot;Helvetica&quot; style=&quot;font-size: 12px;&quot;&gt;&lt;code&gt;- &lt;/code&gt;&lt;/font&gt;&lt;code&gt;codigoSafra&lt;/code&gt;&lt;font face=&quot;Helvetica&quot; style=&quot;font-size: 12px;&quot;&gt;&lt;code&gt;: Integer&lt;br&gt;- &lt;/code&gt;&lt;/font&gt;&lt;code&gt;hectaresPlantados: Double&lt;br&gt;- &lt;/code&gt;&lt;code&gt;dataInicioColheita: Date&lt;br&gt;- &lt;/code&gt;&lt;code&gt;dataFimPrevisto: Date&lt;br&gt;- &lt;/code&gt;&lt;code&gt;dataFimReal: Date&lt;br&gt;- &lt;/code&gt;&lt;code&gt;quantidadeProduzida: Double&lt;/code&gt;&lt;br&gt;&lt;font face=&quot;Helvetica&quot; style=&quot;font-size: 12px;&quot;&gt;&lt;code&gt;- &lt;/code&gt;&lt;/font&gt;&lt;code&gt;produto: Produto&lt;/code&gt;&lt;/pre&gt;&lt;pre style=&quot;margin:0px;margin-left:4px;&quot;&gt;&lt;font face=&quot;3SHaTFnH1fSQ2NX9ofN7&quot; style=&quot;font-size: 12px;&quot;&gt;&lt;code&gt;- &lt;/code&gt;&lt;/font&gt;&lt;code&gt;engenheiroResponsavel&lt;/code&gt;&lt;font face=&quot;3SHaTFnH1fSQ2NX9ofN7&quot; style=&quot;font-size: 12px;&quot;&gt;&lt;code&gt;&lt;/code&gt;: &lt;/font&gt;&lt;code&gt;EngenheiroAgronomo&lt;/code&gt;&lt;/pre&gt;&lt;hr size=&quot;1&quot; style=&quot;border-style:solid;&quot;&gt;&lt;p align=&quot;center&quot; style=&quot;margin:0px;margin-left:4px;&quot;&gt;&lt;font style=&quot;font-size: 12px;&quot;&gt;&lt;b&gt;Metodos&lt;/b&gt;&lt;br&gt;&lt;/font&gt;&lt;/p&gt;&lt;p style=&quot;margin:0px;margin-left:4px;&quot;&gt;&lt;font style=&quot;font-size: 12px;&quot;&gt;+ &lt;/font&gt;cadastrarSafra():&lt;font style=&quot;font-size: 12px;&quot;&gt; Void&lt;/font&gt;&lt;/p&gt;&lt;p style=&quot;margin:0px;margin-left:4px;&quot;&gt;&lt;font style=&quot;font-size: 12px;&quot;&gt;+&amp;nbsp;&lt;/font&gt;verificarQuantidadeProduzida():&lt;font style=&quot;font-size: 12px;&quot;&gt; Double&lt;/font&gt;&lt;/p&gt;&lt;p style=&quot;margin:0px;margin-left:4px;&quot;&gt;&lt;font style=&quot;font-size: 12px;&quot;&gt;+ &lt;/font&gt;gerarRelatorioSafra(): Void&lt;/p&gt;&lt;p style=&quot;margin:0px;margin-left:4px;&quot;&gt;+ plantar(): Void&lt;/p&gt;&lt;p style=&quot;margin:0px;margin-left:4px;&quot;&gt;+ cultivar(): Void&lt;/p&gt;&lt;p style=&quot;margin:0px;margin-left:4px;&quot;&gt;+ colher(): Void&lt;br&gt;&lt;/p&gt;" style="verticalAlign=top;align=left;overflow=fill;html=1;whiteSpace=wrap;" vertex="1" parent="WIyWlLk6GJQsqaUBKTNV-1">
          <mxGeometry x="500" y="370" width="350" height="320" as="geometry" />
        </mxCell>
      </root>
    </mxGraphModel>
  </diagram>
</mxfile>
